<?xml version="1.0" encoding="UTF-8"?>
<svg class="ping-2NgC8E" aria-hidden="false" aria-label="3 ms" viewBox="0 0 24 24" xmlns="http://www.w3.org/2000/svg">
<path class="pingForeground-2uAOZ3" d="m7.2 18c0-0.6636-0.42999-1.2-0.9598-1.2h-2.8804c-0.52981 0-0.95981 0.5364-0.95981 1.2v2.4c0 0.6636 0.43 1.2 0.95981 1.2h2.8794c0.52981 0 0.9598-0.5364 0.9598-1.2v-2.4h9.6e-4z" fill="#43b581"/>
<path class="pingForeground-2uAOZ3" d="m14.4 10.691c0-0.6033-0.4301-1.0909-0.96-1.0909h-2.88c-0.5299 0-0.95999 0.4876-0.95999 1.0909v9.8182c0 0.6033 0.43009 1.0909 0.95999 1.0909h2.88c0.5299 0 0.96-0.4876 0.96-1.0909v-9.8182z" fill="#43b581"/>
<path class="pingForeground-2uAOZ3" d="m21.6 3.4667c0-0.58987-0.4301-1.0667-0.96-1.0667h-2.88c-0.5299 0-0.96 0.4768-0.96 1.0667v17.067c0 0.5899 0.4301 1.0667 0.96 1.0667h2.88c0.5299 0 0.96-0.4768 0.96-1.0667v-17.067z" fill="#43b581"/>
</svg>
