<?xml version="1.0" encoding="UTF-8"?>
<svg width="20" height="20" aria-hidden="false" viewBox="0 0 24 24" xmlns="http://www.w3.org/2000/svg">
<path d="M6.16204 15.0065C6.10859 15.0022 6.05455 15 6 15H4V12C4 7.588 7.589 4 12 4C13.4809 4 14.8691 4.40439 16.0599 5.10859L17.5102 3.65835C15.9292 2.61064 14.0346 2 12 2C6.486 2 2 6.485 2 12V19.1685L6.16204 15.0065Z" fill="#b9bbbe"/>
<path d="m19.725 9.9169c0.1793 0.66444 0.275 1.3627 0.275 2.0831v3h-2c-1.104 0-2 0.896-2 2v3c0 1.104 0.896 2 2 2h2c1.105 0 2-0.896 2-2v-8c0-1.2925-0.2464-2.5285-0.6947-3.6634l-1.5803 1.5803z" fill="#b9bbbe"/>
<path class="strikethrough-1n4ekb" d="m3.201 23.624-1.4142-1.4142 19.799-19.799 1.4142 1.4142-19.799 19.799z" fill="#eb4646"/>
</svg>
