<?xml version="1.0" encoding="UTF-8"?>
<svg width="20" height="20" aria-hidden="false" viewBox="0 0 24 24" xmlns="http://www.w3.org/2000/svg">
<path d="m21.117 1.116 1.767 1.768-3.116 3.116 3.116 3.116-1.767 1.768-3.117-3.116-3.116 3.116-1.767-1.768 3.116-3.116-3.116-3.116 1.767-1.768 3.116 3.116 3.117-3.116zm-3.1169 20.884h-5c-6.075 0-11-4.925-11-11v-5c0-0.553 0.448-1 1-1h4c0.553 0 1 0.447 1 1v4c0 0.553-0.447 1-1 1h-1c0.063 3.938 3 7 7 7v-1c0-0.553 0.447-1 1-1h4c0.553 0 1 0.447 1 1v4c0 0.553-0.447 1-1 1z" clip-rule="evenodd" fill="#b9bbbe" fill-rule="evenodd"/>
</svg>
