<?xml version="1.0" encoding="UTF-8"?>
<svg class="homeIcon-tEMBK1" aria-hidden="false" viewBox="0 0 28 20" xmlns="http://www.w3.org/2000/svg">
<path d="m20.664 20s-0.863-1.0238-1.5822-1.9286c3.1404-0.8809 4.339-2.8333 4.339-2.8333-0.9828 0.6429-1.9178 1.0953-2.7568 1.4048-1.1986 0.5-2.3493 0.8333-3.476 1.0238-2.3014 0.4286-4.411 0.3095-6.2089-0.0238-1.3665-0.2619-2.5411-0.6429-3.524-1.0238-0.55137-0.2143-1.1507-0.4762-1.75-0.8095-0.07192-0.0477-0.14384-0.0715-0.21575-0.1191-0.04795-0.0238-0.07192-0.0476-0.09589-0.0714-0.43151-0.2381-0.67124-0.4048-0.67124-0.4048s1.1507 1.9048 4.1952 2.8095c-0.71918 0.9048-1.6062 1.9762-1.6062 1.9762-5.2979-0.1667-7.3116-3.619-7.3116-3.619 0-7.6666 3.452-13.881 3.452-13.881 3.4521-2.5714 6.7364-2.5 6.7364-2.5l0.2397 0.28571c-4.3151 1.2381-6.3048 3.119-6.3048 3.119s0.52739-0.28572 1.4144-0.69047c2.5651-1.119 4.6027-1.4286 5.4418-1.5 0.1438-0.02381 0.2637-0.04762 0.4075-0.04762 1.4623-0.19047 3.1164-0.23809 4.8425-0.04762 2.2773 0.26191 4.7226 0.92857 7.2157 2.2857 0 0-1.8938-1.7857-5.9692-3.0238l0.3356-0.38095s3.2843-0.071428 6.7363 2.5c0 0 3.4521 6.2142 3.4521 13.881 0 0-2.0377 3.4523-7.3356 3.619zm-11.147-11.119c-1.3664 0-2.4452 1.1904-2.4452 2.6428s1.1027 2.6428 2.4452 2.6428c1.3665 0 2.4452-1.1904 2.4452-2.6428 0.024-1.4524-1.0787-2.6428-2.4452-2.6428zm8.75 0c-1.3664 0-2.4452 1.1904-2.4452 2.6428s1.1028 2.6428 2.4452 2.6428c1.3665 0 2.4452-1.1904 2.4452-2.6428s-1.0787-2.6428-2.4452-2.6428z" fill="#deddde"/>
</svg>
