<?xml version="1.0" encoding="UTF-8"?>
<svg width="20" height="20" aria-hidden="false" viewBox="0 0 24 24" xmlns="http://www.w3.org/2000/svg">
<path d="m14.99 11c0 1.66-1.33 3-2.99 3s-3-1.34-3-3v-6c0-1.66 1.34-3 3-3s3 1.34 3 3l-0.01 6zm-2.99 5.1c2.76 0 5.3-2.1 5.3-5.1h1.7c0 3.42-2.72 6.24-6 6.72v3.28h-2v-3.28c-3.28-0.49-6-3.31-6-6.72h1.7c0 3 2.54 5.1 5.3 5.1zm0-12.1c-0.8 0-1 0.66667-1 1v6c0 0.3333 0.2 1 1 1s1-0.6667 1-1v-6c0-0.33333-0.2-1-1-1z" clip-rule="evenodd" fill="#b9bbbe" fill-rule="evenodd"/>
<path d="m14.99 11c0 1.66-1.33 3-2.99 3s-3-1.34-3-3v-6c0-1.66 1.34-3 3-3s3 1.34 3 3l-0.01 6zm-2.99 5.1c2.76 0 5.3-2.1 5.3-5.1h1.7c0 3.42-2.72 6.24-6 6.72v4.28h-2v-4.28c-3.28-0.49-6-3.31-6-6.72h1.7c0 3 2.54 5.1 5.3 5.1z" clip-rule="evenodd" fill="#b9bbbe" fill-rule="evenodd"/>
</svg>
