<?xml version="1.0" encoding="UTF-8"?>
<svg width="20" height="20" aria-hidden="false" viewBox="0 0 24 24" xmlns="http://www.w3.org/2000/svg">
<path d="M6.7 11H5C5 12.19 5.34 13.3 5.9 14.28L7.13 13.05C6.86 12.43 6.7 11.74 6.7 11Z" fill="#b9bbbe"/>
<path d="m9.01 11.085c5e-3 0.0275 0.01 0.055 0.01 0.085l5.98-5.99v-0.18c0-1.66-1.34-3-3-3s-3 1.34-3 3v6c0 0.03 5e-3 0.0575 0.01 0.085z" fill="#b9bbbe"/>
<path d="m11.724 16.093-0.7605 0.7604-0.7099 0.7157c0.2445 0.0642 0.4937 0.1151 0.7467 0.1512v4.28h2v-4.28c3.28-0.49 6-3.31 6-6.72h-1.7c0 3-2.54 5.1-5.3 5.1-0.0924 0-0.1845-0.0025-0.2763-0.0073z" fill="#b9bbbe"/>
<path class="strikethrough-1n4ekb" d="m21 4.27-1.27-1.27-16.73 16.73 1.27 1.27 4.19-4.18 1.23-1.24 11.31-11.31z" fill="#eb4646"/>
</svg>
