<?xml version="1.0" encoding="UTF-8"?>
<svg class="icon-1DeIlz" aria-hidden="false" viewBox="0 0 24 24" xmlns="http://www.w3.org/2000/svg">
<path d="m11.383 3.079c-0.374-0.154-0.804-0.069-1.09 0.217l-4.293 4.706h-3c-0.55 0-1 0.451-1 1v6c0 0.55 0.45 1 1 1h3l4.293 4.708c0.286 0.286 0.716 0.372 1.09 0.217s0.617-0.52 0.617-0.925v-16c0-0.403-0.243-0.77-0.617-0.923zm2.617 1.9229v2c2.757 0 5 2.244 5 5 0 2.757-2.243 5-5 5v2c3.86 0 7-3.139 7-7 0-3.859-3.14-7-7-7zm0 4c1.654 0 3 1.347 3 3 0 1.655-1.346 3-3 3v-2c0.551 0 1-0.449 1-1s-0.449-1-1-1v-2z" clip-rule="evenodd" fill="#72767d" fill-rule="evenodd"/>
</svg>
